<?xml version="1.0" encoding="utf-8"?>
<!-- Generator: Adobe Illustrator 26.0.3, SVG Export Plug-In . SVG Version: 6.00 Build 0)  -->
<svg version="1.1" id="Ebene_1" xmlns="http://www.w3.org/2000/svg" xmlns:xlink="http://www.w3.org/1999/xlink" x="0px" y="0px"
	 viewBox="0 0 1024 1024" style="enable-background:new 0 0 1024 1024;" xml:space="preserve">
<style type="text/css">
	.st0{clip-path:url(#SVGID_00000005945201613830844780000010185727889448074928_);fill:#3C3C3B;}
	.st1{clip-path:url(#SVGID_00000005945201613830844780000010185727889448074928_);fill:#92C13B;}
</style>
<g>
	<defs>
		<rect id="SVGID_1_" width="1024" height="1024"/>
	</defs>
	<clipPath id="SVGID_00000116236578555033451370000011075791761557743009_">
		<use xlink:href="#SVGID_1_"  style="overflow:visible;"/>
	</clipPath>
	<path style="clip-path:url(#SVGID_00000116236578555033451370000011075791761557743009_);fill:#3C3C3B;" d="M560.8,728.7
		l-11.5,16.9c0,0-0.1,0.1-0.2,0.1c-0.1,0-0.2,0-0.2-0.1l-11.6-16.9c-0.2-0.3-0.4-0.4-0.8-0.4h-5c-0.4,0-0.7,0.2-0.7,0.6v43.9
		c0,0.4,0.2,0.6,0.7,0.6h5c0.4,0,0.7-0.2,0.7-0.6v-33c0-0.1,0-0.2,0.1-0.3c0.1,0,0.2,0,0.2,0.1l9.5,14c0.2,0.3,0.5,0.4,0.8,0.4h2.5
		c0.4,0,0.6-0.1,0.8-0.4l9.5-14.1c0-0.1,0.1-0.2,0.2-0.1c0.1,0,0.1,0.1,0.1,0.3v33.1c0,0.4,0.2,0.6,0.7,0.6h5c0.4,0,0.7-0.2,0.7-0.6
		v-43.9c0-0.4-0.2-0.6-0.7-0.6h-5C561.3,728.3,561.1,728.4,560.8,728.7 M496.9,733.6h11c2.3,0,4.2,0.7,5.6,2.1
		c1.4,1.4,2.1,3.2,2.1,5.5c0,2.2-0.7,4-2.1,5.4c-1.4,1.4-3.3,2-5.6,2h-11c-0.2,0-0.3-0.1-0.3-0.3v-14.5
		C496.7,733.7,496.8,733.6,496.9,733.6 M516.7,773.5h5.2c0.4,0,0.5-0.2,0.5-0.5c0-0.1,0-0.2-0.1-0.3l-9.6-19.4
		c-0.1-0.1,0-0.2,0.1-0.3c2.9-0.7,5.1-2.1,6.7-4.2c1.6-2.1,2.4-4.6,2.4-7.7c0-2.5-0.6-4.8-1.7-6.7c-1.1-1.9-2.7-3.4-4.7-4.5
		c-2-1.1-4.3-1.6-7-1.6H491c-0.4,0-0.7,0.2-0.7,0.6v43.9c0,0.4,0.2,0.6,0.7,0.6h5c0.4,0,0.7-0.2,0.7-0.6v-19.1
		c0-0.2,0.1-0.3,0.3-0.3h9.5c0.1,0,0.2,0.1,0.3,0.2L516,773C516.1,773.4,516.4,773.5,516.7,773.5 M464.3,768.7c-3,0-5.4-0.9-7.2-2.7
		c-1.8-1.8-2.7-4.2-2.7-7.2v-15.7c0-3,0.9-5.4,2.7-7.3c1.8-1.8,4.2-2.7,7.2-2.7c3,0,5.4,0.9,7.3,2.7c1.9,1.8,2.8,4.3,2.8,7.3v15.7
		c0,3-0.9,5.4-2.8,7.2C469.7,767.8,467.3,768.7,464.3,768.7 M464.3,774.1c3.3,0,6.1-0.6,8.6-1.9c2.5-1.3,4.4-3.1,5.8-5.5
		c1.4-2.3,2.1-5,2.1-8.1v-15.4c0-3.1-0.7-5.8-2.1-8.1c-1.4-2.3-3.3-4.1-5.8-5.4c-2.5-1.3-5.3-1.9-8.6-1.9c-3.2,0-6.1,0.6-8.5,1.9
		s-4.4,3.1-5.8,5.4c-1.4,2.3-2,5-2,8.1v15.4c0,3.1,0.7,5.8,2,8.1c1.4,2.3,3.3,4.2,5.8,5.5C458.2,773.4,461,774.1,464.3,774.1
		 M442.7,733v-4.1c0-0.4-0.2-0.6-0.7-0.6h-29.4c-0.4,0-0.7,0.2-0.7,0.6v43.9c0,0.4,0.2,0.6,0.7,0.6h5c0.4,0,0.7-0.2,0.7-0.6v-19.2
		c0-0.2,0.1-0.3,0.3-0.3h16.1c0.4,0,0.7-0.2,0.7-0.6v-4.1c0-0.4-0.2-0.6-0.7-0.6h-16.1c-0.2,0-0.3-0.1-0.3-0.3v-13.9
		c0-0.2,0.1-0.3,0.3-0.3H442C442.5,733.6,442.7,733.4,442.7,733 M403.5,728.3h-31.7c-0.4,0-0.7,0.2-0.7,0.6v4.1
		c0,0.4,0.2,0.6,0.7,0.6h12.1c0.2,0,0.3,0.1,0.3,0.3v38.9c0,0.4,0.2,0.6,0.7,0.6h5c0.4,0,0.7-0.2,0.7-0.6V734c0-0.2,0.1-0.3,0.3-0.3
		h12.7c0.4,0,0.7-0.2,0.7-0.6v-4.1C404.1,728.5,403.9,728.3,403.5,728.3 M344.6,760l7.7-24c0-0.1,0.1-0.1,0.2-0.1
		c0.1,0,0.2,0,0.2,0.1l7.7,24c0,0.1,0,0.2,0,0.2c-0.1,0.1-0.1,0.1-0.2,0.1h-15.2c-0.1,0-0.2,0-0.2-0.1
		C344.6,760.2,344.6,760.1,344.6,760 M365.2,773.5h5.4c0.4,0,0.6-0.2,0.6-0.5l-0.1-0.3l-14.6-44c-0.1-0.3-0.4-0.5-0.8-0.5h-6.6
		c-0.4,0-0.7,0.2-0.8,0.5l-14.5,44c-0.1,0.5,0,0.7,0.5,0.7h5.4c0.4,0,0.7-0.2,0.8-0.5l2.4-7.6c0-0.1,0.1-0.2,0.3-0.2h18.6
		c0.1,0,0.2,0.1,0.3,0.2l2.4,7.6C364.6,773.3,364.8,773.5,365.2,773.5 M297.9,773.5h28.8c0.4,0,0.7-0.2,0.7-0.6v-4.1
		c0-0.4-0.2-0.6-0.7-0.6h-22.8c-0.2,0-0.3-0.1-0.3-0.3v-39c0-0.4-0.2-0.6-0.7-0.6h-5c-0.4,0-0.7,0.2-0.7,0.6v43.9
		C297.2,773.3,297.5,773.5,297.9,773.5 M275.3,749.2h-11c-0.2,0-0.3-0.1-0.3-0.3v-15.1c0-0.2,0.1-0.3,0.3-0.3h11
		c2.4,0,4.4,0.7,5.9,2.2c1.5,1.4,2.2,3.3,2.2,5.7c0,2.3-0.7,4.2-2.2,5.6C279.6,748.5,277.7,749.2,275.3,749.2 M276.1,728.2h-17.9
		c-0.4,0-0.7,0.2-0.7,0.6v44c0,0.4,0.2,0.6,0.7,0.6h5c0.4,0,0.7-0.2,0.7-0.6v-18.3c0-0.2,0.1-0.3,0.3-0.3h11.6
		c2.7,0,5.1-0.5,7.2-1.6c2.1-1.1,3.7-2.6,4.9-4.5c1.1-1.9,1.7-4.2,1.7-6.8c0-2.6-0.6-4.9-1.7-6.8c-1.1-2-2.7-3.5-4.8-4.6
		C281.2,728.8,278.8,728.2,276.1,728.2"/>
	<path style="clip-path:url(#SVGID_00000116236578555033451370000011075791761557743009_);fill:#92C13B;" d="M766.8,659.5v-4.1
		c0-0.4-0.2-0.6-0.7-0.6h-29.4c-0.4,0-0.7,0.2-0.7,0.6v43.9c0,0.4,0.2,0.6,0.7,0.6h29.4c0.4,0,0.7-0.2,0.7-0.6v-4.1
		c0-0.4-0.2-0.6-0.7-0.6h-23.5c-0.2,0-0.3-0.1-0.3-0.3v-14.2c0-0.2,0.1-0.3,0.3-0.3h16.1c0.4,0,0.7-0.2,0.7-0.6v-4.1
		c0-0.4-0.2-0.6-0.7-0.6h-16.1c-0.2,0-0.3-0.1-0.3-0.3v-13.9c0-0.2,0.1-0.3,0.3-0.3h23.5C766.5,660.1,766.8,659.9,766.8,659.5
		 M710.7,700.6c3.2,0,6-0.6,8.4-1.8c2.4-1.2,4.3-2.9,5.7-5.1c1.3-2.2,2-4.7,2-7.5c0-0.4-0.2-0.6-0.7-0.6l-5-0.3
		c-0.4,0-0.7,0.2-0.7,0.6v0.1c0,2.8-0.9,5-2.6,6.7c-1.8,1.7-4.1,2.5-7.1,2.5c-3,0-5.3-0.8-7.1-2.5c-1.8-1.7-2.7-3.9-2.7-6.7v-17.2
		c0-2.8,0.9-5,2.7-6.7c1.8-1.7,4.2-2.5,7.1-2.5c3,0,5.3,0.8,7.1,2.5c1.8,1.7,2.6,3.9,2.6,6.7v0.2c0,0.4,0.2,0.6,0.7,0.6l5-0.3
		c0.2,0,0.3-0.1,0.5-0.2c0.1-0.1,0.2-0.3,0.2-0.5v-0.1c0-2.8-0.7-5.3-2-7.5c-1.3-2.2-3.2-3.8-5.7-5c-2.4-1.2-5.2-1.8-8.4-1.8
		c-3.2,0-6,0.6-8.4,1.8c-2.4,1.2-4.3,3-5.7,5.2c-1.3,2.2-2,4.8-2,7.7v16.7c0,2.9,0.7,5.5,2,7.8c1.3,2.3,3.2,4,5.7,5.2
		C704.7,700,707.6,700.6,710.7,700.6 M678.6,655.4l0.1,32.8c0,0.1,0,0.2-0.1,0.2c-0.1,0-0.2,0-0.2-0.2l-20.6-33
		c-0.2-0.3-0.5-0.5-0.8-0.5H652c-0.4,0-0.7,0.2-0.7,0.6v43.9c0,0.4,0.2,0.6,0.7,0.6h5c0.4,0,0.7-0.2,0.7-0.6l-0.1-32.8
		c0-0.1,0-0.2,0.1-0.2c0.1,0,0.2,0,0.2,0.2l20.7,33c0.2,0.3,0.5,0.5,0.8,0.5h4.8c0.4,0,0.7-0.2,0.7-0.6v-43.9c0-0.4-0.2-0.6-0.7-0.6
		h-5C678.8,654.8,678.6,655,678.6,655.4 M617.1,686.5l7.7-24c0-0.1,0.1-0.1,0.2-0.1c0.1,0,0.2,0,0.2,0.1l7.7,24c0,0.1,0,0.2,0,0.2
		c-0.1,0.1-0.1,0.1-0.2,0.1h-15.2c-0.1,0-0.2,0-0.2-0.1C617.1,686.6,617.1,686.6,617.1,686.5 M637.8,700h5.4c0.4,0,0.6-0.2,0.6-0.5
		l-0.1-0.3l-14.6-44c-0.1-0.3-0.4-0.5-0.8-0.5h-6.6c-0.4,0-0.7,0.2-0.8,0.5l-14.5,44c-0.1,0.5,0,0.7,0.5,0.7h5.4
		c0.4,0,0.7-0.2,0.8-0.5l2.4-7.6c0-0.1,0.1-0.2,0.3-0.2h18.6c0.1,0,0.2,0.1,0.3,0.2l2.4,7.6C637.1,699.8,637.4,700,637.8,700
		 M593.1,700h5c0.4,0,0.7-0.2,0.7-0.6v-43.9c0-0.4-0.2-0.6-0.7-0.6h-5c-0.4,0-0.7,0.2-0.7,0.6v43.9C592.5,699.8,592.7,700,593.1,700
		 M555.4,700h28.8c0.4,0,0.7-0.2,0.7-0.6v-4.1c0-0.4-0.2-0.6-0.7-0.6h-22.8c-0.2,0-0.3-0.1-0.3-0.3v-39c0-0.4-0.2-0.6-0.7-0.6h-5
		c-0.4,0-0.7,0.2-0.7,0.6v43.9C554.8,699.8,555,700,555.4,700 M532.8,675.7h-11c-0.2,0-0.3-0.1-0.3-0.3v-15.1c0-0.2,0.1-0.3,0.3-0.3
		h11c2.4,0,4.4,0.7,5.9,2.2c1.5,1.4,2.2,3.4,2.2,5.7c0,2.3-0.7,4.2-2.2,5.6C537.2,675,535.2,675.7,532.8,675.7 M533.7,654.7h-17.9
		c-0.4,0-0.7,0.2-0.7,0.6v44c0,0.4,0.2,0.6,0.7,0.6h5c0.4,0,0.7-0.2,0.7-0.6V681c0-0.2,0.1-0.3,0.3-0.3h11.6c2.7,0,5.1-0.5,7.2-1.6
		c2.1-1.1,3.7-2.6,4.9-4.5c1.1-1.9,1.7-4.2,1.7-6.8c0-2.6-0.6-4.9-1.7-6.8c-1.1-2-2.7-3.5-4.8-4.6
		C538.7,655.2,536.3,654.7,533.7,654.7 M498.2,655.1l-11.5,16.9c0,0-0.1,0.1-0.2,0.1c-0.1,0-0.2,0-0.2-0.1l-11.6-16.9
		c-0.2-0.3-0.4-0.4-0.8-0.4h-5c-0.4,0-0.7,0.2-0.7,0.6v43.9c0,0.4,0.2,0.6,0.7,0.6h5c0.4,0,0.7-0.2,0.7-0.6v-33c0-0.1,0-0.2,0.1-0.3
		c0.1,0,0.2,0,0.2,0.1l9.5,14c0.2,0.3,0.5,0.4,0.8,0.4h2.5c0.4,0,0.6-0.1,0.8-0.4l9.5-14.1c0-0.1,0.1-0.2,0.2-0.1
		c0.1,0,0.1,0.1,0.1,0.3v33.1c0,0.4,0.2,0.6,0.7,0.6h5c0.4,0,0.7-0.2,0.7-0.6v-43.9c0-0.4-0.2-0.6-0.7-0.6h-5
		C498.7,654.8,498.4,654.9,498.2,655.1 M442.2,695.2c-3,0-5.4-0.9-7.2-2.7c-1.8-1.8-2.7-4.2-2.7-7.2v-15.7c0-3,0.9-5.4,2.7-7.3
		c1.8-1.8,4.2-2.7,7.2-2.7c3,0,5.4,0.9,7.3,2.7c1.9,1.8,2.8,4.3,2.8,7.3v15.7c0,3-0.9,5.4-2.8,7.2
		C447.6,694.3,445.2,695.2,442.2,695.2 M442.2,700.6c3.3,0,6.1-0.6,8.6-1.9s4.4-3.1,5.8-5.5c1.4-2.3,2-5.1,2-8.1v-15.4
		c0-3.1-0.7-5.8-2-8.1c-1.4-2.3-3.3-4.1-5.8-5.4c-2.5-1.3-5.3-1.9-8.6-1.9c-3.2,0-6.1,0.6-8.5,1.9c-2.5,1.3-4.4,3.1-5.8,5.4
		c-1.4,2.3-2.1,5-2.1,8.1v15.4c0,3.1,0.7,5.8,2.1,8.1c1.4,2.3,3.3,4.2,5.8,5.5C436.1,699.9,438.9,700.6,442.2,700.6 M401.8,700.6
		c3.2,0,6-0.6,8.4-1.8c2.4-1.2,4.3-2.9,5.7-5.1c1.3-2.2,2-4.7,2-7.5c0-0.4-0.2-0.6-0.7-0.6l-5-0.3c-0.4,0-0.7,0.2-0.7,0.6v0.1
		c0,2.8-0.9,5-2.6,6.7c-1.8,1.7-4.1,2.5-7.1,2.5c-3,0-5.3-0.8-7.1-2.5c-1.8-1.7-2.7-3.9-2.7-6.7v-17.2c0-2.8,0.9-5,2.7-6.7
		c1.8-1.7,4.2-2.5,7.1-2.5c3,0,5.3,0.8,7.1,2.5c1.8,1.7,2.6,3.9,2.6,6.7v0.2c0,0.4,0.2,0.6,0.7,0.6l5-0.3c0.2,0,0.3-0.1,0.5-0.2
		c0.1-0.1,0.2-0.3,0.2-0.5v-0.1c0-2.8-0.7-5.3-2-7.5c-1.3-2.2-3.2-3.8-5.7-5c-2.4-1.2-5.2-1.8-8.4-1.8c-3.2,0-6,0.6-8.4,1.8
		c-2.4,1.2-4.3,3-5.7,5.2c-1.3,2.2-2,4.8-2,7.7v16.7c0,2.9,0.7,5.5,2,7.8c1.3,2.3,3.2,4,5.7,5.2C395.8,700,398.6,700.6,401.8,700.6
		 M331.2,700h5.5c0.3,0,0.6-0.2,0.8-0.5l10.7-17.1c0-0.1,0.1-0.1,0.2-0.1c0.1,0,0.2,0,0.2,0.1l10.6,17.1c0.2,0.3,0.5,0.5,0.8,0.5
		h5.4c0.4,0,0.6-0.1,0.6-0.4c0-0.1,0-0.2-0.1-0.4l-13.6-21.6c0-0.1,0-0.3,0-0.4l13.6-21.7c0.1-0.2,0.2-0.4,0.1-0.5
		c-0.1-0.2-0.3-0.2-0.5-0.2h-5.4c-0.3,0-0.6,0.2-0.8,0.5l-10.6,17.1c0,0-0.1,0.1-0.2,0.1c-0.1,0-0.2,0-0.2-0.1l-10.7-17.1
		c-0.2-0.3-0.5-0.5-0.8-0.5h-5.5c-0.4,0-0.6,0.1-0.6,0.4c0,0.1,0,0.2,0.1,0.4l13.6,21.6c0.1,0.1,0.1,0.3,0,0.4l-13.6,21.6
		c-0.1,0.2-0.2,0.4-0.1,0.5C330.7,699.9,330.9,700,331.2,700 M299.5,686.5l7.7-24c0-0.1,0.1-0.1,0.2-0.1c0.1,0,0.2,0,0.2,0.1l7.7,24
		c0,0.1,0,0.2,0,0.2c-0.1,0.1-0.1,0.1-0.2,0.1h-15.2c-0.1,0-0.2,0-0.2-0.1C299.5,686.6,299.5,686.6,299.5,686.5 M320.2,700h5.4
		c0.4,0,0.6-0.2,0.6-0.5l-0.1-0.3l-14.6-44c-0.1-0.3-0.4-0.5-0.8-0.5h-6.6c-0.4,0-0.7,0.2-0.8,0.5l-14.5,44c-0.1,0.5,0,0.7,0.5,0.7
		h5.4c0.4,0,0.7-0.2,0.8-0.5l2.4-7.6c0-0.1,0.1-0.2,0.3-0.2h18.6c0.1,0,0.2,0.1,0.3,0.2l2.4,7.6C319.5,699.8,319.8,700,320.2,700
		 M287.4,654.8h-31.7c-0.4,0-0.7,0.2-0.7,0.6v4.1c0,0.4,0.2,0.6,0.7,0.6h12.1c0.2,0,0.3,0.1,0.3,0.3v38.9c0,0.4,0.2,0.6,0.7,0.6h5
		c0.4,0,0.7-0.2,0.7-0.6v-38.9c0-0.2,0.1-0.3,0.3-0.3h12.7c0.4,0,0.7-0.2,0.7-0.6v-4.1C288.1,655,287.9,654.8,287.4,654.8"/>
	<path style="clip-path:url(#SVGID_00000116236578555033451370000011075791761557743009_);fill:#3C3C3B;" d="M702.4,626.5h28.8
		c0.4,0,0.7-0.2,0.7-0.6v-4.1c0-0.4-0.2-0.6-0.7-0.6h-22.8c-0.2,0-0.3-0.1-0.3-0.3v-39c0-0.4-0.2-0.6-0.7-0.6h-5
		c-0.4,0-0.7,0.2-0.7,0.6v43.9C701.7,626.3,702,626.5,702.4,626.5 M667.5,613l7.7-24c0-0.1,0.1-0.1,0.2-0.1c0.1,0,0.2,0,0.2,0.1
		l7.7,24c0,0.1,0,0.2,0,0.2c-0.1,0.1-0.1,0.1-0.2,0.1h-15.2c-0.1,0-0.2,0-0.2-0.1C667.5,613.1,667.5,613.1,667.5,613 M688.2,626.5
		h5.4c0.4,0,0.6-0.2,0.6-0.5l-0.1-0.3l-14.6-44c-0.1-0.3-0.4-0.5-0.8-0.5h-6.6c-0.4,0-0.7,0.2-0.8,0.5l-14.5,44
		c-0.1,0.5,0,0.7,0.5,0.7h5.4c0.4,0,0.7-0.2,0.8-0.5l2.4-7.6c0-0.1,0.1-0.2,0.3-0.2h18.6c0.1,0,0.2,0.1,0.3,0.2l2.4,7.6
		C687.5,626.3,687.8,626.5,688.2,626.5 M642.8,581.9l0.1,32.8c0,0.1,0,0.2-0.1,0.2c-0.1,0-0.2,0-0.2-0.2l-20.6-33
		c-0.2-0.3-0.5-0.5-0.8-0.5h-4.9c-0.4,0-0.7,0.2-0.7,0.6v43.9c0,0.4,0.2,0.6,0.7,0.6h5c0.4,0,0.7-0.2,0.7-0.6l-0.1-32.8
		c0-0.1,0-0.2,0.1-0.2c0.1,0,0.2,0,0.2,0.2l20.7,33c0.2,0.3,0.5,0.5,0.8,0.5h4.8c0.4,0,0.7-0.2,0.7-0.6v-43.9c0-0.4-0.2-0.6-0.7-0.6
		h-5C643,581.2,642.8,581.5,642.8,581.9 M589.5,621.7c-3,0-5.4-0.9-7.2-2.7c-1.8-1.8-2.7-4.2-2.7-7.2v-15.7c0-3,0.9-5.4,2.7-7.3
		c1.8-1.8,4.2-2.7,7.2-2.7c3,0,5.4,0.9,7.3,2.7c1.9,1.8,2.8,4.3,2.8,7.3v15.7c0,3-0.9,5.4-2.8,7.2
		C594.9,620.8,592.5,621.7,589.5,621.7 M589.5,627.1c3.3,0,6.1-0.6,8.6-1.9c2.5-1.3,4.4-3.1,5.8-5.5c1.4-2.3,2.1-5,2.1-8.1v-15.4
		c0-3.1-0.7-5.8-2.1-8.1c-1.4-2.3-3.3-4.1-5.8-5.4c-2.5-1.3-5.3-1.9-8.6-1.9c-3.2,0-6.1,0.6-8.5,1.9s-4.4,3.1-5.8,5.4
		c-1.4,2.3-2,5-2,8.1v15.4c0,3.1,0.7,5.8,2,8.1c1.4,2.3,3.3,4.2,5.8,5.5C583.4,626.4,586.3,627.1,589.5,627.1 M557.9,626.5h5
		c0.4,0,0.7-0.2,0.7-0.6v-43.9c0-0.4-0.2-0.6-0.7-0.6h-5c-0.4,0-0.7,0.2-0.7,0.6v43.9C557.2,626.3,557.4,626.5,557.9,626.5
		 M548.7,581.2H517c-0.4,0-0.7,0.2-0.7,0.6v4.1c0,0.4,0.2,0.6,0.7,0.6h12.1c0.2,0,0.3,0.1,0.3,0.3v38.9c0,0.4,0.2,0.6,0.7,0.6h5
		c0.4,0,0.7-0.2,0.7-0.6v-38.9c0-0.2,0.1-0.3,0.3-0.3h12.7c0.4,0,0.7-0.2,0.7-0.6v-4.1C549.3,581.5,549.1,581.2,548.7,581.2
		 M489.8,613l7.7-24c0-0.1,0.1-0.1,0.2-0.1c0.1,0,0.2,0,0.2,0.1l7.7,24c0,0.1,0,0.2,0,0.2c-0.1,0.1-0.1,0.1-0.2,0.1h-15.2
		c-0.1,0-0.2,0-0.2-0.1C489.8,613.1,489.7,613.1,489.8,613 M510.4,626.5h5.4c0.4,0,0.6-0.2,0.6-0.5l-0.1-0.3l-14.6-44
		c-0.1-0.3-0.4-0.5-0.8-0.5h-6.6c-0.4,0-0.7,0.2-0.8,0.5l-14.5,44c-0.1,0.5,0,0.7,0.5,0.7h5.4c0.4,0,0.7-0.2,0.8-0.5l2.4-7.6
		c0-0.1,0.1-0.2,0.3-0.2H507c0.1,0,0.2,0.1,0.3,0.2l2.4,7.6C509.8,626.3,510,626.5,510.4,626.5 M465.1,581.9l0.1,32.8
		c0,0.1,0,0.2-0.1,0.2c-0.1,0-0.2,0-0.2-0.2l-20.6-33c-0.2-0.3-0.5-0.5-0.8-0.5h-4.9c-0.4,0-0.7,0.2-0.7,0.6v43.9
		c0,0.4,0.2,0.6,0.7,0.6h5c0.4,0,0.7-0.2,0.7-0.6l-0.1-32.8c0-0.1,0-0.2,0.1-0.2c0.1,0,0.2,0,0.2,0.2l20.7,33
		c0.2,0.3,0.5,0.5,0.8,0.5h4.8c0.4,0,0.7-0.2,0.7-0.6v-43.9c0-0.4-0.2-0.6-0.7-0.6h-5C465.3,581.2,465.1,581.5,465.1,581.9
		 M403.9,586.6h11c2.3,0,4.2,0.7,5.6,2.1c1.4,1.4,2.1,3.2,2.1,5.5c0,2.2-0.7,4-2.1,5.4c-1.4,1.4-3.3,2-5.6,2h-11
		c-0.2,0-0.3-0.1-0.3-0.3v-14.5C403.6,586.7,403.7,586.6,403.9,586.6 M423.6,626.5h5.2c0.4,0,0.5-0.2,0.5-0.5c0-0.1,0-0.2-0.1-0.3
		l-9.6-19.4c-0.1-0.1,0-0.2,0.1-0.3c2.9-0.7,5.1-2.1,6.7-4.2c1.6-2.1,2.4-4.6,2.4-7.7c0-2.5-0.6-4.8-1.7-6.7
		c-1.1-1.9-2.7-3.4-4.7-4.5c-2-1.1-4.3-1.6-7-1.6h-17.8c-0.4,0-0.7,0.2-0.7,0.6v43.9c0,0.4,0.2,0.6,0.7,0.6h5c0.4,0,0.7-0.2,0.7-0.6
		v-19.1c0-0.2,0.1-0.3,0.3-0.3h9.5c0.1,0,0.2,0.1,0.3,0.2l9.3,19.3C423.1,626.3,423.3,626.5,423.6,626.5 M388.5,586v-4.1
		c0-0.4-0.2-0.6-0.7-0.6h-29.4c-0.4,0-0.7,0.2-0.7,0.6v43.9c0,0.4,0.2,0.6,0.7,0.6h29.4c0.4,0,0.7-0.2,0.7-0.6v-4.1
		c0-0.4-0.2-0.6-0.7-0.6h-23.5c-0.2,0-0.3-0.1-0.3-0.3v-14.2c0-0.2,0.1-0.3,0.3-0.3h16.1c0.4,0,0.7-0.2,0.7-0.6v-4.1
		c0-0.4-0.2-0.6-0.7-0.6h-16.1c-0.2,0-0.3-0.1-0.3-0.3v-13.9c0-0.2,0.1-0.3,0.3-0.3h23.5C388.2,586.6,388.5,586.4,388.5,586
		 M349.2,581.2h-31.7c-0.4,0-0.7,0.2-0.7,0.6v4.1c0,0.4,0.2,0.6,0.7,0.6h12.1c0.2,0,0.3,0.1,0.3,0.3v38.9c0,0.4,0.2,0.6,0.7,0.6h5
		c0.4,0,0.7-0.2,0.7-0.6v-38.9c0-0.2,0.1-0.3,0.3-0.3h12.7c0.4,0,0.7-0.2,0.7-0.6v-4.1C349.8,581.5,349.6,581.2,349.2,581.2
		 M302.5,581.9l0.1,32.8c0,0.1,0,0.2-0.1,0.2c-0.1,0-0.2,0-0.2-0.2l-20.6-33c-0.2-0.3-0.5-0.5-0.8-0.5h-4.9c-0.4,0-0.7,0.2-0.7,0.6
		v43.9c0,0.4,0.2,0.6,0.7,0.6h5c0.4,0,0.7-0.2,0.7-0.6l-0.1-32.8c0-0.1,0-0.2,0.1-0.2c0.1,0,0.2,0,0.2,0.2l20.7,33
		c0.2,0.3,0.5,0.5,0.8,0.5h4.8c0.4,0,0.7-0.2,0.7-0.6v-43.9c0-0.4-0.2-0.6-0.7-0.6h-5C302.7,581.2,302.5,581.5,302.5,581.9
		 M258.7,626.5h5c0.4,0,0.7-0.2,0.7-0.6v-43.9c0-0.4-0.2-0.6-0.7-0.6h-5c-0.4,0-0.7,0.2-0.7,0.6v43.9
		C258,626.3,258.2,626.5,258.7,626.5"/>
	<path style="clip-path:url(#SVGID_00000116236578555033451370000011075791761557743009_);fill:#3C3C3B;" d="M361.8,414.5h29.5
		c0.7,0,1.3-0.2,1.8-0.7c0.5-0.5,0.7-1,0.7-1.7v-136c0-0.7-0.2-1.2-0.7-1.7c-0.5-0.5-1.1-0.7-1.8-0.7h-29.5c-0.7,0-1.3,0.2-1.8,0.7
		c-0.5,0.5-0.7,1-0.7,1.7v136c0,0.7,0.2,1.2,0.7,1.7C360.5,414.3,361.1,414.5,361.8,414.5"/>
	<path style="clip-path:url(#SVGID_00000116236578555033451370000011075791761557743009_);fill:#92C13B;" d="M585.8,416.1
		c11.1,0,20.8-2,29.1-5.9c8.4-4,14.9-9.6,19.5-16.8c4.6-7.2,6.9-15.6,6.9-25.2c0-0.5-0.2-1-0.7-1.4c-0.5-0.4-1.1-0.6-1.8-0.6
		l-28.1,0c-1.7,0-2.5,0.7-2.5,2.2c0,6.2-3.3,9.8-7.1,13.5c-3.9,3.8-9,5.6-15.4,5.6c-6.4,0-11.5-1.9-15.3-5.6
		c-3.9-3.8-5.8-8.7-5.8-14.9v-45.7c0-6.2,1.9-11.2,5.8-15c3.9-3.8,9-5.7,15.3-5.7c6.4,0,11.5,1.9,15.4,5.6c3.9,3.8,5.8,7,5.8,13.3
		c0,1.5,0.8,2.2,2.5,2.2l29.5,0c0.7,0,1.3-0.2,1.8-0.6c0.5-0.4,0.7-0.9,0.7-1.6c0-9.4-2.3-17.7-6.9-24.8
		c-4.6-7.2-11.1-12.7-19.5-16.7c-8.4-4-18.1-5.9-29.1-5.9c-11.1,0-20.8,2.1-29.1,6.2c-8.4,4.2-14.9,10-19.5,17.6
		c-4.6,7.6-6.9,16.3-6.9,26.3v43.5c0,10.1,2.3,18.9,6.9,26.6c4.6,7.6,11.1,13.5,19.5,17.7C565,414,574.7,416.1,585.8,416.1
		 M519.2,273.7H411.4c-0.7,0-1.3,0.2-1.8,0.7c-0.5,0.5-0.7,1-0.7,1.7V300c0,0.7,0.2,1.2,0.7,1.7c0.5,0.5,1.1,0.7,1.8,0.7h35.1
		c0.7,0,1,0.3,1,1v108.7c0,0.7,0.2,1.2,0.7,1.7c0.5,0.5,1.1,0.7,1.8,0.7h29.5c0.7,0,1.3-0.2,1.8-0.7c0.5-0.5,0.7-1,0.7-1.7V303.4
		c0-0.7,0.3-1,1-1h36.3c0.7,0,1.3-0.2,1.8-0.7c0.5-0.5,0.7-1,0.7-1.7v-23.9c0-0.7-0.2-1.2-0.7-1.7
		C520.5,273.9,519.9,273.7,519.2,273.7"/>
	<path style="clip-path:url(#SVGID_00000116236578555033451370000011075791761557743009_);fill:#3C3C3B;" d="M715,336h-21.4
		c-0.7,0-1-0.3-1-1v-31.8c0-0.7,0.3-1,1-1H715c5.7,0,10.3,1.6,13.8,4.7c3.5,3.2,5.3,7.3,5.3,12.4c0,5-1.8,9-5.3,12.1
		C725.3,334.5,720.7,336,715,336 M720.6,273.7h-59.9c-0.7,0-1.3,0.2-1.8,0.7c-0.5,0.5-0.7,1-0.7,1.7v136c0,0.7,0.2,1.2,0.7,1.7
		c0.5,0.5,1.1,0.7,1.8,0.7h29.5c0.7,0,1.3-0.2,1.8-0.7c0.5-0.5,0.7-1,0.7-1.7v-48.5c0-0.7,0.3-1,1-1H719c9.8,0,18.5-1.8,25.9-5.4
		c7.5-3.6,13.2-8.8,17.3-15.5c4.1-6.7,6.1-14.4,6.1-23.1c0-8.9-2-16.7-5.9-23.4c-3.9-6.8-9.5-12-16.8-15.8
		C738.4,275.5,730,273.7,720.6,273.7"/>
	<path style="clip-path:url(#SVGID_00000116236578555033451370000011075791761557743009_);fill:#3C3C3B;" d="M190.8,272v508.6
		c0,31.2,25.9,56.6,57.6,56.6h518.9v-12.6H248.4c-24.7,0-44.8-19.8-44.8-44V272H190.8z"/>
	<path style="clip-path:url(#SVGID_00000116236578555033451370000011075791761557743009_);fill:#92C13B;" d="M833.2,774.1V263.5
		c0-31.2-25.9-56.6-57.6-56.6H254.9v12.6h520.7c24.7,0,44.8,19.8,44.8,44v510.5H833.2z"/>
</g>
</svg>
