<svg xmlns="http://www.w3.org/2000/svg" xmlns:xlink="http://www.w3.org/1999/xlink" version="1.1" style="" xml:space="preserve" width="642" height="630"><rect id="backgroundrect" width="100%" height="100%" x="0" y="0" fill="none" stroke="none"/>
<style type="text/css">
	.st0{clip-path:url(#SVGID_00000005945201613830844780000010185727889448074928_);fill:#3C3C3B;}
	.st1{clip-path:url(#SVGID_00000005945201613830844780000010185727889448074928_);fill:#92C13B;}
</style>

<g class="currentLayer" style=""><title>Layer 1</title><g id="svg_1" class="">
	<defs transform="translate(-190.8000030517578,-206.89999389648438) ">
		<rect id="SVGID_1_" width="1024" height="1024"/>
	</defs>
	<clipPath id="SVGID_00000116236578555033451370000011075791761557743009_" transform="translate(-190.8000030517578,-206.89999389648438) ">
		<use xlink:href="#SVGID_1_" style="overflow:visible;" id="svg_2"/>
	</clipPath>
	<path style="clip-path:url(#SVGID_00000116236578555033451370000011075791761557743009_);fill:#3C3C3B;" d="M369.99999694824214,521.8000061035157 l-11.5,16.9 c0,0 -0.1,0.1 -0.2,0.1 c-0.1,0 -0.2,0 -0.2,-0.1 l-11.6,-16.9 c-0.2,-0.30000000000000004 -0.4,-0.4 -0.8,-0.4 h-5 c-0.4,0 -0.7000000000000001,0.2 -0.7000000000000001,0.6000000000000001 v43.9 c0,0.4 0.2,0.6000000000000001 0.7000000000000001,0.6000000000000001 h5 c0.4,0 0.7000000000000001,-0.2 0.7000000000000001,-0.6000000000000001 v-33 c0,-0.1 0,-0.2 0.1,-0.30000000000000004 c0.1,0 0.2,0 0.2,0.1 l9.5,14 c0.2,0.30000000000000004 0.5,0.4 0.8,0.4 h2.5 c0.4,0 0.6000000000000001,-0.1 0.8,-0.4 l9.5,-14.1 c0,-0.1 0.1,-0.2 0.2,-0.1 c0.1,0 0.1,0.1 0.1,0.30000000000000004 v33.1 c0,0.4 0.2,0.6000000000000001 0.7000000000000001,0.6000000000000001 h5 c0.4,0 0.7000000000000001,-0.2 0.7000000000000001,-0.6000000000000001 v-43.9 c0,-0.4 -0.2,-0.6000000000000001 -0.7000000000000001,-0.6000000000000001 h-5 C370.49999694824214,521.4000061035156 370.2999969482422,521.5000061035156 369.99999694824214,521.8000061035157 M306.09999694824216,526.7000061035156 h11 c2.3,0 4.2,0.7000000000000001 5.6,2.1 c1.4,1.4 2.1,3.2 2.1,5.5 c0,2.2 -0.7000000000000001,4 -2.1,5.4 c-1.4,1.4 -3.3,2 -5.6,2 h-11 c-0.2,0 -0.30000000000000004,-0.1 -0.30000000000000004,-0.30000000000000004 v-14.5 C305.8999969482422,526.8000061035157 305.9999969482422,526.7000061035156 306.09999694824216,526.7000061035156 M325.89999694824223,566.6000061035156 h5.2 c0.4,0 0.5,-0.2 0.5,-0.5 c0,-0.1 0,-0.2 -0.1,-0.30000000000000004 l-9.6,-19.4 c-0.1,-0.1 0,-0.2 0.1,-0.30000000000000004 c2.9,-0.7000000000000001 5.1,-2.1 6.7,-4.2 c1.6,-2.1 2.4,-4.6 2.4,-7.7 c0,-2.5 -0.6000000000000001,-4.8 -1.7000000000000002,-6.7 c-1.1,-1.9 -2.7,-3.4 -4.7,-4.5 c-2,-1.1 -4.3,-1.6 -7,-1.6 H300.1999969482422 c-0.4,0 -0.7000000000000001,0.2 -0.7000000000000001,0.6000000000000001 v43.9 c0,0.4 0.2,0.6000000000000001 0.7000000000000001,0.6000000000000001 h5 c0.4,0 0.7000000000000001,-0.2 0.7000000000000001,-0.6000000000000001 v-19.1 c0,-0.2 0.1,-0.30000000000000004 0.30000000000000004,-0.30000000000000004 h9.5 c0.1,0 0.2,0.1 0.30000000000000004,0.2 L325.1999969482422,566.1000061035156 C325.2999969482422,566.5000061035156 325.59999694824216,566.6000061035156 325.89999694824223,566.6000061035156 M273.4999969482422,561.8000061035157 c-3,0 -5.4,-0.9 -7.2,-2.7 c-1.8,-1.8 -2.7,-4.2 -2.7,-7.2 v-15.7 c0,-3 0.9,-5.4 2.7,-7.3 c1.8,-1.8 4.2,-2.7 7.2,-2.7 c3,0 5.4,0.9 7.3,2.7 c1.9,1.8 2.8,4.3 2.8,7.3 v15.7 c0,3 -0.9,5.4 -2.8,7.2 C278.8999969482422,560.9000061035156 276.4999969482422,561.8000061035157 273.4999969482422,561.8000061035157 M273.4999969482422,567.2000061035156 c3.3,0 6.1,-0.6000000000000001 8.6,-1.9 c2.5,-1.3 4.4,-3.1 5.8,-5.5 c1.4,-2.3 2.1,-5 2.1,-8.1 v-15.4 c0,-3.1 -0.7000000000000001,-5.8 -2.1,-8.1 c-1.4,-2.3 -3.3,-4.1 -5.8,-5.4 c-2.5,-1.3 -5.3,-1.9 -8.6,-1.9 c-3.2,0 -6.1,0.6000000000000001 -8.5,1.9 s-4.4,3.1 -5.8,5.4 c-1.4,2.3 -2,5 -2,8.1 v15.4 c0,3.1 0.7000000000000001,5.8 2,8.1 c1.4,2.3 3.3,4.2 5.8,5.5 C267.3999969482422,566.5000061035156 270.1999969482422,567.2000061035156 273.4999969482422,567.2000061035156 M251.89999694824218,526.1000061035156 v-4.1 c0,-0.4 -0.2,-0.6000000000000001 -0.7000000000000001,-0.6000000000000001 h-29.4 c-0.4,0 -0.7000000000000001,0.2 -0.7000000000000001,0.6000000000000001 v43.9 c0,0.4 0.2,0.6000000000000001 0.7000000000000001,0.6000000000000001 h5 c0.4,0 0.7000000000000001,-0.2 0.7000000000000001,-0.6000000000000001 v-19.2 c0,-0.2 0.1,-0.30000000000000004 0.30000000000000004,-0.30000000000000004 h16.1 c0.4,0 0.7000000000000001,-0.2 0.7000000000000001,-0.6000000000000001 v-4.1 c0,-0.4 -0.2,-0.6000000000000001 -0.7000000000000001,-0.6000000000000001 h-16.1 c-0.2,0 -0.30000000000000004,-0.1 -0.30000000000000004,-0.30000000000000004 v-13.9 c0,-0.2 0.1,-0.30000000000000004 0.30000000000000004,-0.30000000000000004 H251.1999969482422 C251.6999969482422,526.7000061035156 251.89999694824218,526.5000061035156 251.89999694824218,526.1000061035156 M212.6999969482422,521.4000061035156 h-31.7 c-0.4,0 -0.7000000000000001,0.2 -0.7000000000000001,0.6000000000000001 v4.1 c0,0.4 0.2,0.6000000000000001 0.7000000000000001,0.6000000000000001 h12.1 c0.2,0 0.30000000000000004,0.1 0.30000000000000004,0.30000000000000004 v38.9 c0,0.4 0.2,0.6000000000000001 0.7000000000000001,0.6000000000000001 h5 c0.4,0 0.7000000000000001,-0.2 0.7000000000000001,-0.6000000000000001 V527.1000061035156 c0,-0.2 0.1,-0.30000000000000004 0.30000000000000004,-0.30000000000000004 h12.7 c0.4,0 0.7000000000000001,-0.2 0.7000000000000001,-0.6000000000000001 v-4.1 C213.2999969482422,521.6000061035156 213.09999694824216,521.4000061035156 212.6999969482422,521.4000061035156 M153.7999969482422,553.1000061035156 l7.7,-24 c0,-0.1 0.1,-0.1 0.2,-0.1 c0.1,0 0.2,0 0.2,0.1 l7.7,24 c0,0.1 0,0.2 0,0.2 c-0.1,0.1 -0.1,0.1 -0.2,0.1 h-15.2 c-0.1,0 -0.2,0 -0.2,-0.1 C153.7999969482422,553.3000061035157 153.7999969482422,553.2000061035156 153.7999969482422,553.1000061035156 M174.39999694824218,566.6000061035156 h5.4 c0.4,0 0.6000000000000001,-0.2 0.6000000000000001,-0.5 l-0.1,-0.30000000000000004 l-14.6,-44 c-0.1,-0.30000000000000004 -0.4,-0.5 -0.8,-0.5 h-6.6 c-0.4,0 -0.7000000000000001,0.2 -0.8,0.5 l-14.5,44 c-0.1,0.5 0,0.7000000000000001 0.5,0.7000000000000001 h5.4 c0.4,0 0.7000000000000001,-0.2 0.8,-0.5 l2.4,-7.6 c0,-0.1 0.1,-0.2 0.30000000000000004,-0.2 h18.6 c0.1,0 0.2,0.1 0.30000000000000004,0.2 l2.4,7.6 C173.7999969482422,566.4000061035156 173.9999969482422,566.6000061035156 174.39999694824218,566.6000061035156 M107.09999694824216,566.6000061035156 h28.8 c0.4,0 0.7000000000000001,-0.2 0.7000000000000001,-0.6000000000000001 v-4.1 c0,-0.4 -0.2,-0.6000000000000001 -0.7000000000000001,-0.6000000000000001 h-22.8 c-0.2,0 -0.30000000000000004,-0.1 -0.30000000000000004,-0.30000000000000004 v-39 c0,-0.4 -0.2,-0.6000000000000001 -0.7000000000000001,-0.6000000000000001 h-5 c-0.4,0 -0.7000000000000001,0.2 -0.7000000000000001,0.6000000000000001 v43.9 C106.39999694824218,566.4000061035156 106.69999694824219,566.6000061035156 107.09999694824216,566.6000061035156 M84.4999969482422,542.3000061035157 h-11 c-0.2,0 -0.30000000000000004,-0.1 -0.30000000000000004,-0.30000000000000004 v-15.1 c0,-0.2 0.1,-0.30000000000000004 0.30000000000000004,-0.30000000000000004 h11 c2.4,0 4.4,0.7000000000000001 5.9,2.2 c1.5,1.4 2.2,3.3 2.2,5.7 c0,2.3 -0.7000000000000001,4.2 -2.2,5.6 C88.79999694824221,541.6000061035156 86.89999694824218,542.3000061035157 84.4999969482422,542.3000061035157 M85.29999694824221,521.3000061035157 h-17.9 c-0.4,0 -0.7000000000000001,0.2 -0.7000000000000001,0.6000000000000001 v44 c0,0.4 0.2,0.6000000000000001 0.7000000000000001,0.6000000000000001 h5 c0.4,0 0.7000000000000001,-0.2 0.7000000000000001,-0.6000000000000001 v-18.3 c0,-0.2 0.1,-0.30000000000000004 0.30000000000000004,-0.30000000000000004 h11.6 c2.7,0 5.1,-0.5 7.2,-1.6 c2.1,-1.1 3.7,-2.6 4.9,-4.5 c1.1,-1.9 1.7000000000000002,-4.2 1.7000000000000002,-6.8 c0,-2.6 -0.6000000000000001,-4.9 -1.7000000000000002,-6.8 c-1.1,-2 -2.7,-3.5 -4.8,-4.6 C90.39999694824218,521.9000061035156 87.9999969482422,521.3000061035157 85.29999694824221,521.3000061035157 " id="svg_3"/>
	<path style="clip-path:url(#SVGID_00000116236578555033451370000011075791761557743009_);fill:#92C13B;" d="M575.9999969482421,452.6000061035156 v-4.1 c0,-0.4 -0.2,-0.6000000000000001 -0.7000000000000001,-0.6000000000000001 h-29.4 c-0.4,0 -0.7000000000000001,0.2 -0.7000000000000001,0.6000000000000001 v43.9 c0,0.4 0.2,0.6000000000000001 0.7000000000000001,0.6000000000000001 h29.4 c0.4,0 0.7000000000000001,-0.2 0.7000000000000001,-0.6000000000000001 v-4.1 c0,-0.4 -0.2,-0.6000000000000001 -0.7000000000000001,-0.6000000000000001 h-23.5 c-0.2,0 -0.30000000000000004,-0.1 -0.30000000000000004,-0.30000000000000004 v-14.2 c0,-0.2 0.1,-0.30000000000000004 0.30000000000000004,-0.30000000000000004 h16.1 c0.4,0 0.7000000000000001,-0.2 0.7000000000000001,-0.6000000000000001 v-4.1 c0,-0.4 -0.2,-0.6000000000000001 -0.7000000000000001,-0.6000000000000001 h-16.1 c-0.2,0 -0.30000000000000004,-0.1 -0.30000000000000004,-0.30000000000000004 v-13.9 c0,-0.2 0.1,-0.30000000000000004 0.30000000000000004,-0.30000000000000004 h23.5 C575.6999969482422,453.20000610351565 575.9999969482421,453.0000061035156 575.9999969482421,452.6000061035156 M519.8999969482422,493.70000610351565 c3.2,0 6,-0.6000000000000001 8.4,-1.8 c2.4,-1.2 4.3,-2.9 5.7,-5.1 c1.3,-2.2 2,-4.7 2,-7.5 c0,-0.4 -0.2,-0.6000000000000001 -0.7000000000000001,-0.6000000000000001 l-5,-0.30000000000000004 c-0.4,0 -0.7000000000000001,0.2 -0.7000000000000001,0.6000000000000001 v0.1 c0,2.8 -0.9,5 -2.6,6.7 c-1.8,1.7000000000000002 -4.1,2.5 -7.1,2.5 c-3,0 -5.3,-0.8 -7.1,-2.5 c-1.8,-1.7000000000000002 -2.7,-3.9 -2.7,-6.7 v-17.2 c0,-2.8 0.9,-5 2.7,-6.7 c1.8,-1.7000000000000002 4.2,-2.5 7.1,-2.5 c3,0 5.3,0.8 7.1,2.5 c1.8,1.7000000000000002 2.6,3.9 2.6,6.7 v0.2 c0,0.4 0.2,0.6000000000000001 0.7000000000000001,0.6000000000000001 l5,-0.30000000000000004 c0.2,0 0.30000000000000004,-0.1 0.5,-0.2 c0.1,-0.1 0.2,-0.30000000000000004 0.2,-0.5 v-0.1 c0,-2.8 -0.7000000000000001,-5.3 -2,-7.5 c-1.3,-2.2 -3.2,-3.8 -5.7,-5 c-2.4,-1.2 -5.2,-1.8 -8.4,-1.8 c-3.2,0 -6,0.6000000000000001 -8.4,1.8 c-2.4,1.2 -4.3,3 -5.7,5.2 c-1.3,2.2 -2,4.8 -2,7.7 v16.7 c0,2.9 0.7000000000000001,5.5 2,7.8 c1.3,2.3 3.2,4 5.7,5.2 C513.8999969482422,493.1000061035156 516.7999969482422,493.70000610351565 519.8999969482422,493.70000610351565 M487.7999969482422,448.5000061035156 l0.1,32.8 c0,0.1 0,0.2 -0.1,0.2 c-0.1,0 -0.2,0 -0.2,-0.2 l-20.6,-33 c-0.2,-0.30000000000000004 -0.5,-0.5 -0.8,-0.5 H461.1999969482422 c-0.4,0 -0.7000000000000001,0.2 -0.7000000000000001,0.6000000000000001 v43.9 c0,0.4 0.2,0.6000000000000001 0.7000000000000001,0.6000000000000001 h5 c0.4,0 0.7000000000000001,-0.2 0.7000000000000001,-0.6000000000000001 l-0.1,-32.8 c0,-0.1 0,-0.2 0.1,-0.2 c0.1,0 0.2,0 0.2,0.2 l20.7,33 c0.2,0.30000000000000004 0.5,0.5 0.8,0.5 h4.8 c0.4,0 0.7000000000000001,-0.2 0.7000000000000001,-0.6000000000000001 v-43.9 c0,-0.4 -0.2,-0.6000000000000001 -0.7000000000000001,-0.6000000000000001 h-5 C487.99999694824214,447.9000061035156 487.7999969482422,448.1000061035156 487.7999969482422,448.5000061035156 M426.2999969482422,479.6000061035156 l7.7,-24 c0,-0.1 0.1,-0.1 0.2,-0.1 c0.1,0 0.2,0 0.2,0.1 l7.7,24 c0,0.1 0,0.2 0,0.2 c-0.1,0.1 -0.1,0.1 -0.2,0.1 h-15.2 c-0.1,0 -0.2,0 -0.2,-0.1 C426.2999969482422,479.70000610351565 426.2999969482422,479.70000610351565 426.2999969482422,479.6000061035156 M446.99999694824214,493.1000061035156 h5.4 c0.4,0 0.6000000000000001,-0.2 0.6000000000000001,-0.5 l-0.1,-0.30000000000000004 l-14.6,-44 c-0.1,-0.30000000000000004 -0.4,-0.5 -0.8,-0.5 h-6.6 c-0.4,0 -0.7000000000000001,0.2 -0.8,0.5 l-14.5,44 c-0.1,0.5 0,0.7000000000000001 0.5,0.7000000000000001 h5.4 c0.4,0 0.7000000000000001,-0.2 0.8,-0.5 l2.4,-7.6 c0,-0.1 0.1,-0.2 0.30000000000000004,-0.2 h18.6 c0.1,0 0.2,0.1 0.30000000000000004,0.2 l2.4,7.6 C446.2999969482422,492.9000061035156 446.59999694824216,493.1000061035156 446.99999694824214,493.1000061035156 M402.2999969482422,493.1000061035156 h5 c0.4,0 0.7000000000000001,-0.2 0.7000000000000001,-0.6000000000000001 v-43.9 c0,-0.4 -0.2,-0.6000000000000001 -0.7000000000000001,-0.6000000000000001 h-5 c-0.4,0 -0.7000000000000001,0.2 -0.7000000000000001,0.6000000000000001 v43.9 C401.6999969482422,492.9000061035156 401.89999694824223,493.1000061035156 402.2999969482422,493.1000061035156 M364.59999694824216,493.1000061035156 h28.8 c0.4,0 0.7000000000000001,-0.2 0.7000000000000001,-0.6000000000000001 v-4.1 c0,-0.4 -0.2,-0.6000000000000001 -0.7000000000000001,-0.6000000000000001 h-22.8 c-0.2,0 -0.30000000000000004,-0.1 -0.30000000000000004,-0.30000000000000004 v-39 c0,-0.4 -0.2,-0.6000000000000001 -0.7000000000000001,-0.6000000000000001 h-5 c-0.4,0 -0.7000000000000001,0.2 -0.7000000000000001,0.6000000000000001 v43.9 C363.99999694824214,492.9000061035156 364.1999969482422,493.1000061035156 364.59999694824216,493.1000061035156 M341.99999694824214,468.80000610351567 h-11 c-0.2,0 -0.30000000000000004,-0.1 -0.30000000000000004,-0.30000000000000004 v-15.1 c0,-0.2 0.1,-0.30000000000000004 0.30000000000000004,-0.30000000000000004 h11 c2.4,0 4.4,0.7000000000000001 5.9,2.2 c1.5,1.4 2.2,3.4 2.2,5.7 c0,2.3 -0.7000000000000001,4.2 -2.2,5.6 C346.39999694824223,468.1000061035156 344.39999694824223,468.80000610351567 341.99999694824214,468.80000610351567 M342.89999694824223,447.80000610351567 h-17.9 c-0.4,0 -0.7000000000000001,0.2 -0.7000000000000001,0.6000000000000001 v44 c0,0.4 0.2,0.6000000000000001 0.7000000000000001,0.6000000000000001 h5 c0.4,0 0.7000000000000001,-0.2 0.7000000000000001,-0.6000000000000001 V474.1000061035156 c0,-0.2 0.1,-0.30000000000000004 0.30000000000000004,-0.30000000000000004 h11.6 c2.7,0 5.1,-0.5 7.2,-1.6 c2.1,-1.1 3.7,-2.6 4.9,-4.5 c1.1,-1.9 1.7000000000000002,-4.2 1.7000000000000002,-6.8 c0,-2.6 -0.6000000000000001,-4.9 -1.7000000000000002,-6.8 c-1.1,-2 -2.7,-3.5 -4.8,-4.6 C347.89999694824223,448.30000610351567 345.49999694824214,447.80000610351567 342.89999694824223,447.80000610351567 M307.3999969482422,448.20000610351565 l-11.5,16.9 c0,0 -0.1,0.1 -0.2,0.1 c-0.1,0 -0.2,0 -0.2,-0.1 l-11.6,-16.9 c-0.2,-0.30000000000000004 -0.4,-0.4 -0.8,-0.4 h-5 c-0.4,0 -0.7000000000000001,0.2 -0.7000000000000001,0.6000000000000001 v43.9 c0,0.4 0.2,0.6000000000000001 0.7000000000000001,0.6000000000000001 h5 c0.4,0 0.7000000000000001,-0.2 0.7000000000000001,-0.6000000000000001 v-33 c0,-0.1 0,-0.2 0.1,-0.30000000000000004 c0.1,0 0.2,0 0.2,0.1 l9.5,14 c0.2,0.30000000000000004 0.5,0.4 0.8,0.4 h2.5 c0.4,0 0.6000000000000001,-0.1 0.8,-0.4 l9.5,-14.1 c0,-0.1 0.1,-0.2 0.2,-0.1 c0.1,0 0.1,0.1 0.1,0.30000000000000004 v33.1 c0,0.4 0.2,0.6000000000000001 0.7000000000000001,0.6000000000000001 h5 c0.4,0 0.7000000000000001,-0.2 0.7000000000000001,-0.6000000000000001 v-43.9 c0,-0.4 -0.2,-0.6000000000000001 -0.7000000000000001,-0.6000000000000001 h-5 C307.8999969482422,447.9000061035156 307.59999694824216,448.0000061035156 307.3999969482422,448.20000610351565 M251.39999694824218,488.30000610351567 c-3,0 -5.4,-0.9 -7.2,-2.7 c-1.8,-1.8 -2.7,-4.2 -2.7,-7.2 v-15.7 c0,-3 0.9,-5.4 2.7,-7.3 c1.8,-1.8 4.2,-2.7 7.2,-2.7 c3,0 5.4,0.9 7.3,2.7 c1.9,1.8 2.8,4.3 2.8,7.3 v15.7 c0,3 -0.9,5.4 -2.8,7.2 C256.7999969482422,487.4000061035156 254.39999694824218,488.30000610351567 251.39999694824218,488.30000610351567 M251.39999694824218,493.70000610351565 c3.3,0 6.1,-0.6000000000000001 8.6,-1.9 s4.4,-3.1 5.8,-5.5 c1.4,-2.3 2,-5.1 2,-8.1 v-15.4 c0,-3.1 -0.7000000000000001,-5.8 -2,-8.1 c-1.4,-2.3 -3.3,-4.1 -5.8,-5.4 c-2.5,-1.3 -5.3,-1.9 -8.6,-1.9 c-3.2,0 -6.1,0.6000000000000001 -8.5,1.9 c-2.5,1.3 -4.4,3.1 -5.8,5.4 c-1.4,2.3 -2.1,5 -2.1,8.1 v15.4 c0,3.1 0.7000000000000001,5.8 2.1,8.1 c1.4,2.3 3.3,4.2 5.8,5.5 C245.2999969482422,493.0000061035156 248.09999694824216,493.70000610351565 251.39999694824218,493.70000610351565 M210.9999969482422,493.70000610351565 c3.2,0 6,-0.6000000000000001 8.4,-1.8 c2.4,-1.2 4.3,-2.9 5.7,-5.1 c1.3,-2.2 2,-4.7 2,-7.5 c0,-0.4 -0.2,-0.6000000000000001 -0.7000000000000001,-0.6000000000000001 l-5,-0.30000000000000004 c-0.4,0 -0.7000000000000001,0.2 -0.7000000000000001,0.6000000000000001 v0.1 c0,2.8 -0.9,5 -2.6,6.7 c-1.8,1.7000000000000002 -4.1,2.5 -7.1,2.5 c-3,0 -5.3,-0.8 -7.1,-2.5 c-1.8,-1.7000000000000002 -2.7,-3.9 -2.7,-6.7 v-17.2 c0,-2.8 0.9,-5 2.7,-6.7 c1.8,-1.7000000000000002 4.2,-2.5 7.1,-2.5 c3,0 5.3,0.8 7.1,2.5 c1.8,1.7000000000000002 2.6,3.9 2.6,6.7 v0.2 c0,0.4 0.2,0.6000000000000001 0.7000000000000001,0.6000000000000001 l5,-0.30000000000000004 c0.2,0 0.30000000000000004,-0.1 0.5,-0.2 c0.1,-0.1 0.2,-0.30000000000000004 0.2,-0.5 v-0.1 c0,-2.8 -0.7000000000000001,-5.3 -2,-7.5 c-1.3,-2.2 -3.2,-3.8 -5.7,-5 c-2.4,-1.2 -5.2,-1.8 -8.4,-1.8 c-3.2,0 -6,0.6000000000000001 -8.4,1.8 c-2.4,1.2 -4.3,3 -5.7,5.2 c-1.3,2.2 -2,4.8 -2,7.7 v16.7 c0,2.9 0.7000000000000001,5.5 2,7.8 c1.3,2.3 3.2,4 5.7,5.2 C204.9999969482422,493.1000061035156 207.7999969482422,493.70000610351565 210.9999969482422,493.70000610351565 M140.39999694824218,493.1000061035156 h5.5 c0.30000000000000004,0 0.6000000000000001,-0.2 0.8,-0.5 l10.7,-17.1 c0,-0.1 0.1,-0.1 0.2,-0.1 c0.1,0 0.2,0 0.2,0.1 l10.6,17.1 c0.2,0.30000000000000004 0.5,0.5 0.8,0.5 h5.4 c0.4,0 0.6000000000000001,-0.1 0.6000000000000001,-0.4 c0,-0.1 0,-0.2 -0.1,-0.4 l-13.6,-21.6 c0,-0.1 0,-0.30000000000000004 0,-0.4 l13.6,-21.7 c0.1,-0.2 0.2,-0.4 0.1,-0.5 c-0.1,-0.2 -0.30000000000000004,-0.2 -0.5,-0.2 h-5.4 c-0.30000000000000004,0 -0.6000000000000001,0.2 -0.8,0.5 l-10.6,17.1 c0,0 -0.1,0.1 -0.2,0.1 c-0.1,0 -0.2,0 -0.2,-0.1 l-10.7,-17.1 c-0.2,-0.30000000000000004 -0.5,-0.5 -0.8,-0.5 h-5.5 c-0.4,0 -0.6000000000000001,0.1 -0.6000000000000001,0.4 c0,0.1 0,0.2 0.1,0.4 l13.6,21.6 c0.1,0.1 0.1,0.30000000000000004 0,0.4 l-13.6,21.6 c-0.1,0.2 -0.2,0.4 -0.1,0.5 C139.89999694824218,493.0000061035156 140.09999694824216,493.1000061035156 140.39999694824218,493.1000061035156 M108.69999694824219,479.6000061035156 l7.7,-24 c0,-0.1 0.1,-0.1 0.2,-0.1 c0.1,0 0.2,0 0.2,0.1 l7.7,24 c0,0.1 0,0.2 0,0.2 c-0.1,0.1 -0.1,0.1 -0.2,0.1 h-15.2 c-0.1,0 -0.2,0 -0.2,-0.1 C108.69999694824219,479.70000610351565 108.69999694824219,479.70000610351565 108.69999694824219,479.6000061035156 M129.39999694824218,493.1000061035156 h5.4 c0.4,0 0.6000000000000001,-0.2 0.6000000000000001,-0.5 l-0.1,-0.30000000000000004 l-14.6,-44 c-0.1,-0.30000000000000004 -0.4,-0.5 -0.8,-0.5 h-6.6 c-0.4,0 -0.7000000000000001,0.2 -0.8,0.5 l-14.5,44 c-0.1,0.5 0,0.7000000000000001 0.5,0.7000000000000001 h5.4 c0.4,0 0.7000000000000001,-0.2 0.8,-0.5 l2.4,-7.6 c0,-0.1 0.1,-0.2 0.30000000000000004,-0.2 h18.6 c0.1,0 0.2,0.1 0.30000000000000004,0.2 l2.4,7.6 C128.6999969482422,492.9000061035156 128.9999969482422,493.1000061035156 129.39999694824218,493.1000061035156 M96.59999694824216,447.9000061035156 h-31.7 c-0.4,0 -0.7000000000000001,0.2 -0.7000000000000001,0.6000000000000001 v4.1 c0,0.4 0.2,0.6000000000000001 0.7000000000000001,0.6000000000000001 h12.1 c0.2,0 0.30000000000000004,0.1 0.30000000000000004,0.30000000000000004 v38.9 c0,0.4 0.2,0.6000000000000001 0.7000000000000001,0.6000000000000001 h5 c0.4,0 0.7000000000000001,-0.2 0.7000000000000001,-0.6000000000000001 v-38.9 c0,-0.2 0.1,-0.30000000000000004 0.30000000000000004,-0.30000000000000004 h12.7 c0.4,0 0.7000000000000001,-0.2 0.7000000000000001,-0.6000000000000001 v-4.1 C97.29999694824221,448.1000061035156 97.09999694824216,447.9000061035156 96.59999694824216,447.9000061035156 " id="svg_4"/>
	<path style="clip-path:url(#SVGID_00000116236578555033451370000011075791761557743009_);fill:#3C3C3B;" d="M511.59999694824216,419.6000061035156 h28.8 c0.4,0 0.7000000000000001,-0.2 0.7000000000000001,-0.6000000000000001 v-4.1 c0,-0.4 -0.2,-0.6000000000000001 -0.7000000000000001,-0.6000000000000001 h-22.8 c-0.2,0 -0.30000000000000004,-0.1 -0.30000000000000004,-0.30000000000000004 v-39 c0,-0.4 -0.2,-0.6000000000000001 -0.7000000000000001,-0.6000000000000001 h-5 c-0.4,0 -0.7000000000000001,0.2 -0.7000000000000001,0.6000000000000001 v43.9 C510.89999694824223,419.4000061035156 511.1999969482422,419.6000061035156 511.59999694824216,419.6000061035156 M476.6999969482422,406.1000061035156 l7.7,-24 c0,-0.1 0.1,-0.1 0.2,-0.1 c0.1,0 0.2,0 0.2,0.1 l7.7,24 c0,0.1 0,0.2 0,0.2 c-0.1,0.1 -0.1,0.1 -0.2,0.1 h-15.2 c-0.1,0 -0.2,0 -0.2,-0.1 C476.6999969482422,406.20000610351565 476.6999969482422,406.20000610351565 476.6999969482422,406.1000061035156 M497.39999694824223,419.6000061035156 h5.4 c0.4,0 0.6000000000000001,-0.2 0.6000000000000001,-0.5 l-0.1,-0.30000000000000004 l-14.6,-44 c-0.1,-0.30000000000000004 -0.4,-0.5 -0.8,-0.5 h-6.6 c-0.4,0 -0.7000000000000001,0.2 -0.8,0.5 l-14.5,44 c-0.1,0.5 0,0.7000000000000001 0.5,0.7000000000000001 h5.4 c0.4,0 0.7000000000000001,-0.2 0.8,-0.5 l2.4,-7.6 c0,-0.1 0.1,-0.2 0.30000000000000004,-0.2 h18.6 c0.1,0 0.2,0.1 0.30000000000000004,0.2 l2.4,7.6 C496.6999969482422,419.4000061035156 496.99999694824214,419.6000061035156 497.39999694824223,419.6000061035156 M451.99999694824214,375.0000061035156 l0.1,32.8 c0,0.1 0,0.2 -0.1,0.2 c-0.1,0 -0.2,0 -0.2,-0.2 l-20.6,-33 c-0.2,-0.30000000000000004 -0.5,-0.5 -0.8,-0.5 h-4.9 c-0.4,0 -0.7000000000000001,0.2 -0.7000000000000001,0.6000000000000001 v43.9 c0,0.4 0.2,0.6000000000000001 0.7000000000000001,0.6000000000000001 h5 c0.4,0 0.7000000000000001,-0.2 0.7000000000000001,-0.6000000000000001 l-0.1,-32.8 c0,-0.1 0,-0.2 0.1,-0.2 c0.1,0 0.2,0 0.2,0.2 l20.7,33 c0.2,0.30000000000000004 0.5,0.5 0.8,0.5 h4.8 c0.4,0 0.7000000000000001,-0.2 0.7000000000000001,-0.6000000000000001 v-43.9 c0,-0.4 -0.2,-0.6000000000000001 -0.7000000000000001,-0.6000000000000001 h-5 C452.1999969482422,374.30000610351567 451.99999694824214,374.6000061035156 451.99999694824214,375.0000061035156 M398.6999969482422,414.80000610351567 c-3,0 -5.4,-0.9 -7.2,-2.7 c-1.8,-1.8 -2.7,-4.2 -2.7,-7.2 v-15.7 c0,-3 0.9,-5.4 2.7,-7.3 c1.8,-1.8 4.2,-2.7 7.2,-2.7 c3,0 5.4,0.9 7.3,2.7 c1.9,1.8 2.8,4.3 2.8,7.3 v15.7 c0,3 -0.9,5.4 -2.8,7.2 C404.09999694824216,413.9000061035156 401.6999969482422,414.80000610351567 398.6999969482422,414.80000610351567 M398.6999969482422,420.20000610351565 c3.3,0 6.1,-0.6000000000000001 8.6,-1.9 c2.5,-1.3 4.4,-3.1 5.8,-5.5 c1.4,-2.3 2.1,-5 2.1,-8.1 v-15.4 c0,-3.1 -0.7000000000000001,-5.8 -2.1,-8.1 c-1.4,-2.3 -3.3,-4.1 -5.8,-5.4 c-2.5,-1.3 -5.3,-1.9 -8.6,-1.9 c-3.2,0 -6.1,0.6000000000000001 -8.5,1.9 s-4.4,3.1 -5.8,5.4 c-1.4,2.3 -2,5 -2,8.1 v15.4 c0,3.1 0.7000000000000001,5.8 2,8.1 c1.4,2.3 3.3,4.2 5.8,5.5 C392.59999694824216,419.5000061035156 395.49999694824214,420.20000610351565 398.6999969482422,420.20000610351565 M367.09999694824216,419.6000061035156 h5 c0.4,0 0.7000000000000001,-0.2 0.7000000000000001,-0.6000000000000001 v-43.9 c0,-0.4 -0.2,-0.6000000000000001 -0.7000000000000001,-0.6000000000000001 h-5 c-0.4,0 -0.7000000000000001,0.2 -0.7000000000000001,0.6000000000000001 v43.9 C366.39999694824223,419.4000061035156 366.59999694824216,419.6000061035156 367.09999694824216,419.6000061035156 M357.89999694824223,374.30000610351567 H326.1999969482422 c-0.4,0 -0.7000000000000001,0.2 -0.7000000000000001,0.6000000000000001 v4.1 c0,0.4 0.2,0.6000000000000001 0.7000000000000001,0.6000000000000001 h12.1 c0.2,0 0.30000000000000004,0.1 0.30000000000000004,0.30000000000000004 v38.9 c0,0.4 0.2,0.6000000000000001 0.7000000000000001,0.6000000000000001 h5 c0.4,0 0.7000000000000001,-0.2 0.7000000000000001,-0.6000000000000001 v-38.9 c0,-0.2 0.1,-0.30000000000000004 0.30000000000000004,-0.30000000000000004 h12.7 c0.4,0 0.7000000000000001,-0.2 0.7000000000000001,-0.6000000000000001 v-4.1 C358.49999694824214,374.6000061035156 358.2999969482422,374.30000610351567 357.89999694824223,374.30000610351567 M298.9999969482422,406.1000061035156 l7.7,-24 c0,-0.1 0.1,-0.1 0.2,-0.1 c0.1,0 0.2,0 0.2,0.1 l7.7,24 c0,0.1 0,0.2 0,0.2 c-0.1,0.1 -0.1,0.1 -0.2,0.1 h-15.2 c-0.1,0 -0.2,0 -0.2,-0.1 C298.9999969482422,406.20000610351565 298.8999969482422,406.20000610351565 298.9999969482422,406.1000061035156 M319.59999694824216,419.6000061035156 h5.4 c0.4,0 0.6000000000000001,-0.2 0.6000000000000001,-0.5 l-0.1,-0.30000000000000004 l-14.6,-44 c-0.1,-0.30000000000000004 -0.4,-0.5 -0.8,-0.5 h-6.6 c-0.4,0 -0.7000000000000001,0.2 -0.8,0.5 l-14.5,44 c-0.1,0.5 0,0.7000000000000001 0.5,0.7000000000000001 h5.4 c0.4,0 0.7000000000000001,-0.2 0.8,-0.5 l2.4,-7.6 c0,-0.1 0.1,-0.2 0.30000000000000004,-0.2 H316.1999969482422 c0.1,0 0.2,0.1 0.30000000000000004,0.2 l2.4,7.6 C318.9999969482422,419.4000061035156 319.1999969482422,419.6000061035156 319.59999694824216,419.6000061035156 M274.2999969482422,375.0000061035156 l0.1,32.8 c0,0.1 0,0.2 -0.1,0.2 c-0.1,0 -0.2,0 -0.2,-0.2 l-20.6,-33 c-0.2,-0.30000000000000004 -0.5,-0.5 -0.8,-0.5 h-4.9 c-0.4,0 -0.7000000000000001,0.2 -0.7000000000000001,0.6000000000000001 v43.9 c0,0.4 0.2,0.6000000000000001 0.7000000000000001,0.6000000000000001 h5 c0.4,0 0.7000000000000001,-0.2 0.7000000000000001,-0.6000000000000001 l-0.1,-32.8 c0,-0.1 0,-0.2 0.1,-0.2 c0.1,0 0.2,0 0.2,0.2 l20.7,33 c0.2,0.30000000000000004 0.5,0.5 0.8,0.5 h4.8 c0.4,0 0.7000000000000001,-0.2 0.7000000000000001,-0.6000000000000001 v-43.9 c0,-0.4 -0.2,-0.6000000000000001 -0.7000000000000001,-0.6000000000000001 h-5 C274.4999969482422,374.30000610351567 274.2999969482422,374.6000061035156 274.2999969482422,375.0000061035156 M213.09999694824216,379.70000610351565 h11 c2.3,0 4.2,0.7000000000000001 5.6,2.1 c1.4,1.4 2.1,3.2 2.1,5.5 c0,2.2 -0.7000000000000001,4 -2.1,5.4 c-1.4,1.4 -3.3,2 -5.6,2 h-11 c-0.2,0 -0.30000000000000004,-0.1 -0.30000000000000004,-0.30000000000000004 v-14.5 C212.7999969482422,379.80000610351567 212.89999694824218,379.70000610351565 213.09999694824216,379.70000610351565 M232.7999969482422,419.6000061035156 h5.2 c0.4,0 0.5,-0.2 0.5,-0.5 c0,-0.1 0,-0.2 -0.1,-0.30000000000000004 l-9.6,-19.4 c-0.1,-0.1 0,-0.2 0.1,-0.30000000000000004 c2.9,-0.7000000000000001 5.1,-2.1 6.7,-4.2 c1.6,-2.1 2.4,-4.6 2.4,-7.7 c0,-2.5 -0.6000000000000001,-4.8 -1.7000000000000002,-6.7 c-1.1,-1.9 -2.7,-3.4 -4.7,-4.5 c-2,-1.1 -4.3,-1.6 -7,-1.6 h-17.8 c-0.4,0 -0.7000000000000001,0.2 -0.7000000000000001,0.6000000000000001 v43.9 c0,0.4 0.2,0.6000000000000001 0.7000000000000001,0.6000000000000001 h5 c0.4,0 0.7000000000000001,-0.2 0.7000000000000001,-0.6000000000000001 v-19.1 c0,-0.2 0.1,-0.30000000000000004 0.30000000000000004,-0.30000000000000004 h9.5 c0.1,0 0.2,0.1 0.30000000000000004,0.2 l9.3,19.3 C232.2999969482422,419.4000061035156 232.4999969482422,419.6000061035156 232.7999969482422,419.6000061035156 M197.6999969482422,379.1000061035156 v-4.1 c0,-0.4 -0.2,-0.6000000000000001 -0.7000000000000001,-0.6000000000000001 h-29.4 c-0.4,0 -0.7000000000000001,0.2 -0.7000000000000001,0.6000000000000001 v43.9 c0,0.4 0.2,0.6000000000000001 0.7000000000000001,0.6000000000000001 h29.4 c0.4,0 0.7000000000000001,-0.2 0.7000000000000001,-0.6000000000000001 v-4.1 c0,-0.4 -0.2,-0.6000000000000001 -0.7000000000000001,-0.6000000000000001 h-23.5 c-0.2,0 -0.30000000000000004,-0.1 -0.30000000000000004,-0.30000000000000004 v-14.2 c0,-0.2 0.1,-0.30000000000000004 0.30000000000000004,-0.30000000000000004 h16.1 c0.4,0 0.7000000000000001,-0.2 0.7000000000000001,-0.6000000000000001 v-4.1 c0,-0.4 -0.2,-0.6000000000000001 -0.7000000000000001,-0.6000000000000001 h-16.1 c-0.2,0 -0.30000000000000004,-0.1 -0.30000000000000004,-0.30000000000000004 v-13.9 c0,-0.2 0.1,-0.30000000000000004 0.30000000000000004,-0.30000000000000004 h23.5 C197.39999694824218,379.70000610351565 197.6999969482422,379.5000061035156 197.6999969482422,379.1000061035156 M158.39999694824218,374.30000610351567 h-31.7 c-0.4,0 -0.7000000000000001,0.2 -0.7000000000000001,0.6000000000000001 v4.1 c0,0.4 0.2,0.6000000000000001 0.7000000000000001,0.6000000000000001 h12.1 c0.2,0 0.30000000000000004,0.1 0.30000000000000004,0.30000000000000004 v38.9 c0,0.4 0.2,0.6000000000000001 0.7000000000000001,0.6000000000000001 h5 c0.4,0 0.7000000000000001,-0.2 0.7000000000000001,-0.6000000000000001 v-38.9 c0,-0.2 0.1,-0.30000000000000004 0.30000000000000004,-0.30000000000000004 h12.7 c0.4,0 0.7000000000000001,-0.2 0.7000000000000001,-0.6000000000000001 v-4.1 C158.9999969482422,374.6000061035156 158.7999969482422,374.30000610351567 158.39999694824218,374.30000610351567 M111.69999694824219,375.0000061035156 l0.1,32.8 c0,0.1 0,0.2 -0.1,0.2 c-0.1,0 -0.2,0 -0.2,-0.2 l-20.6,-33 c-0.2,-0.30000000000000004 -0.5,-0.5 -0.8,-0.5 h-4.9 c-0.4,0 -0.7000000000000001,0.2 -0.7000000000000001,0.6000000000000001 v43.9 c0,0.4 0.2,0.6000000000000001 0.7000000000000001,0.6000000000000001 h5 c0.4,0 0.7000000000000001,-0.2 0.7000000000000001,-0.6000000000000001 l-0.1,-32.8 c0,-0.1 0,-0.2 0.1,-0.2 c0.1,0 0.2,0 0.2,0.2 l20.7,33 c0.2,0.30000000000000004 0.5,0.5 0.8,0.5 h4.8 c0.4,0 0.7000000000000001,-0.2 0.7000000000000001,-0.6000000000000001 v-43.9 c0,-0.4 -0.2,-0.6000000000000001 -0.7000000000000001,-0.6000000000000001 h-5 C111.89999694824218,374.30000610351567 111.69999694824219,374.6000061035156 111.69999694824219,375.0000061035156 M67.89999694824218,419.6000061035156 h5 c0.4,0 0.7000000000000001,-0.2 0.7000000000000001,-0.6000000000000001 v-43.9 c0,-0.4 -0.2,-0.6000000000000001 -0.7000000000000001,-0.6000000000000001 h-5 c-0.4,0 -0.7000000000000001,0.2 -0.7000000000000001,0.6000000000000001 v43.9 C67.19999694824219,419.4000061035156 67.39999694824218,419.6000061035156 67.89999694824218,419.6000061035156 " id="svg_5"/>
	<path style="clip-path:url(#SVGID_00000116236578555033451370000011075791761557743009_);fill:#3C3C3B;" d="M170.9999969482422,207.60000610351562 h29.5 c0.7000000000000001,0 1.3,-0.2 1.8,-0.7000000000000001 c0.5,-0.5 0.7000000000000001,-1 0.7000000000000001,-1.7000000000000002 v-136 c0,-0.7000000000000001 -0.2,-1.2 -0.7000000000000001,-1.7000000000000002 c-0.5,-0.5 -1.1,-0.7000000000000001 -1.8,-0.7000000000000001 h-29.5 c-0.7000000000000001,0 -1.3,0.2 -1.8,0.7000000000000001 c-0.5,0.5 -0.7000000000000001,1 -0.7000000000000001,1.7000000000000002 v136 c0,0.7000000000000001 0.2,1.2 0.7000000000000001,1.7000000000000002 C169.6999969482422,207.40000610351564 170.2999969482422,207.60000610351562 170.9999969482422,207.60000610351562 " id="svg_6"/>
	<path style="clip-path:url(#SVGID_00000116236578555033451370000011075791761557743009_);fill:#92C13B;" d="M394.99999694824214,209.20000610351565 c11.1,0 20.8,-2 29.1,-5.9 c8.4,-4 14.9,-9.6 19.5,-16.8 c4.6,-7.2 6.9,-15.6 6.9,-25.2 c0,-0.5 -0.2,-1 -0.7000000000000001,-1.4 c-0.5,-0.4 -1.1,-0.6000000000000001 -1.8,-0.6000000000000001 l-28.1,0 c-1.7000000000000002,0 -2.5,0.7000000000000001 -2.5,2.2 c0,6.2 -3.3,9.8 -7.1,13.5 c-3.9,3.8 -9,5.6 -15.4,5.6 c-6.4,0 -11.5,-1.9 -15.3,-5.6 c-3.9,-3.8 -5.8,-8.7 -5.8,-14.9 v-45.7 c0,-6.2 1.9,-11.2 5.8,-15 c3.9,-3.8 9,-5.7 15.3,-5.7 c6.4,0 11.5,1.9 15.4,5.6 c3.9,3.8 5.8,7 5.8,13.3 c0,1.5 0.8,2.2 2.5,2.2 l29.5,0 c0.7000000000000001,0 1.3,-0.2 1.8,-0.6000000000000001 c0.5,-0.4 0.7000000000000001,-0.9 0.7000000000000001,-1.6 c0,-9.4 -2.3,-17.7 -6.9,-24.8 c-4.6,-7.2 -11.1,-12.7 -19.5,-16.7 c-8.4,-4 -18.1,-5.9 -29.1,-5.9 c-11.1,0 -20.8,2.1 -29.1,6.2 c-8.4,4.2 -14.9,10 -19.5,17.6 c-4.6,7.6 -6.9,16.3 -6.9,26.3 v43.5 c0,10.1 2.3,18.9 6.9,26.6 c4.6,7.6 11.1,13.5 19.5,17.7 C374.1999969482422,207.10000610351562 383.89999694824223,209.20000610351565 394.99999694824214,209.20000610351565 M328.39999694824223,66.80000610351561 H220.59999694824216 c-0.7000000000000001,0 -1.3,0.2 -1.8,0.7000000000000001 c-0.5,0.5 -0.7000000000000001,1 -0.7000000000000001,1.7000000000000002 V93.10000610351562 c0,0.7000000000000001 0.2,1.2 0.7000000000000001,1.7000000000000002 c0.5,0.5 1.1,0.7000000000000001 1.8,0.7000000000000001 h35.1 c0.7000000000000001,0 1,0.30000000000000004 1,1 v108.7 c0,0.7000000000000001 0.2,1.2 0.7000000000000001,1.7000000000000002 c0.5,0.5 1.1,0.7000000000000001 1.8,0.7000000000000001 h29.5 c0.7000000000000001,0 1.3,-0.2 1.8,-0.7000000000000001 c0.5,-0.5 0.7000000000000001,-1 0.7000000000000001,-1.7000000000000002 V96.5000061035156 c0,-0.7000000000000001 0.30000000000000004,-1 1,-1 h36.3 c0.7000000000000001,0 1.3,-0.2 1.8,-0.7000000000000001 c0.5,-0.5 0.7000000000000001,-1 0.7000000000000001,-1.7000000000000002 v-23.9 c0,-0.7000000000000001 -0.2,-1.2 -0.7000000000000001,-1.7000000000000002 C329.6999969482422,67.0000061035156 329.09999694824216,66.80000610351561 328.39999694824223,66.80000610351561 " id="svg_7"/>
	<path style="clip-path:url(#SVGID_00000116236578555033451370000011075791761557743009_);fill:#3C3C3B;" d="M524.1999969482422,129.10000610351562 h-21.4 c-0.7000000000000001,0 -1,-0.30000000000000004 -1,-1 v-31.8 c0,-0.7000000000000001 0.30000000000000004,-1 1,-1 H524.1999969482422 c5.7,0 10.3,1.6 13.8,4.7 c3.5,3.2 5.3,7.3 5.3,12.4 c0,5 -1.8,9 -5.3,12.1 C534.4999969482421,127.60000610351562 529.8999969482422,129.10000610351562 524.1999969482422,129.10000610351562 M529.7999969482422,66.80000610351561 h-59.9 c-0.7000000000000001,0 -1.3,0.2 -1.8,0.7000000000000001 c-0.5,0.5 -0.7000000000000001,1 -0.7000000000000001,1.7000000000000002 v136 c0,0.7000000000000001 0.2,1.2 0.7000000000000001,1.7000000000000002 c0.5,0.5 1.1,0.7000000000000001 1.8,0.7000000000000001 h29.5 c0.7000000000000001,0 1.3,-0.2 1.8,-0.7000000000000001 c0.5,-0.5 0.7000000000000001,-1 0.7000000000000001,-1.7000000000000002 v-48.5 c0,-0.7000000000000001 0.30000000000000004,-1 1,-1 H528.1999969482422 c9.8,0 18.5,-1.8 25.9,-5.4 c7.5,-3.6 13.2,-8.8 17.3,-15.5 c4.1,-6.7 6.1,-14.4 6.1,-23.1 c0,-8.9 -2,-16.7 -5.9,-23.4 c-3.9,-6.8 -9.5,-12 -16.8,-15.8 C547.5999969482422,68.60000610351562 539.1999969482422,66.80000610351561 529.7999969482422,66.80000610351561 " id="svg_8"/>
	<path style="clip-path:url(#SVGID_00000116236578555033451370000011075791761557743009_);fill:#3C3C3B;" d="M-0.0000030517578011313162,65.10000610351562 v508.6 c0,31.2 25.9,56.6 57.6,56.6 h518.9 v-12.6 H57.59999694824219 c-24.7,0 -44.8,-19.8 -44.8,-44 V65.10000610351562 H-0.0000030517578011313162 z" id="svg_9"/>
	<path style="clip-path:url(#SVGID_00000116236578555033451370000011075791761557743009_);fill:#92C13B;" d="M642.3999969482422,567.2000061035156 V56.600006103515625 c0,-31.2 -25.9,-56.6 -57.6,-56.6 H64.0999969482422 v12.6 h520.7 c24.7,0 44.8,19.8 44.8,44 v510.5 H642.3999969482422 z" id="svg_10"/>
</g></g></svg>